<?xml version="1.0" encoding="UTF-8" standalone="no"?>
<!-- Created with Inkscape (http://www.inkscape.org/) -->

<svg
   width="120"
   height="120"
   viewBox="0 0 120 120"
   version="1.1"
   id="svg5"
   xml:space="preserve"
   inkscape:version="1.2 (dc2aeda, 2022-05-15)"
   sodipodi:docname="logo.svg"
   xmlns:inkscape="http://www.inkscape.org/namespaces/inkscape"
   xmlns:sodipodi="http://sodipodi.sourceforge.net/DTD/sodipodi-0.dtd"
   xmlns="http://www.w3.org/2000/svg"
   xmlns:svg="http://www.w3.org/2000/svg"><sodipodi:namedview
     id="namedview7"
     pagecolor="#ffffff"
     bordercolor="#999999"
     borderopacity="1"
     inkscape:showpageshadow="0"
     inkscape:pageopacity="0"
     inkscape:pagecheckerboard="0"
     inkscape:deskcolor="#d1d1d1"
     inkscape:document-units="px"
     showgrid="false"
     inkscape:zoom="7.0833333"
     inkscape:cx="60"
     inkscape:cy="60"
     inkscape:window-width="1920"
     inkscape:window-height="1052"
     inkscape:window-x="0"
     inkscape:window-y="0"
     inkscape:window-maximized="1"
     inkscape:current-layer="layer1" /><defs
     id="defs2" /><g
     inkscape:label="Camada 1"
     inkscape:groupmode="layer"
     id="layer1"><g
       id="g18430"
       transform="matrix(1.025641,0,0,1.025641,-2.564102,-0.51281862)"><rect
         style="fill:none;fill-opacity:1;stroke:#00a86b;stroke-width:0;stroke-linejoin:miter;stroke-miterlimit:100;stroke-dasharray:none;stroke-opacity:1;paint-order:markers fill stroke"
         id="rect14992"
         width="30.541258"
         height="13.186192"
         x="79.009323"
         y="-20.837317"
         transform="rotate(45.000001)" /><rect
         style="fill:none;fill-opacity:1;stroke:#00a86b;stroke-width:2.50068;stroke-linejoin:miter;stroke-miterlimit:100;stroke-dasharray:none;stroke-opacity:1;paint-order:markers fill stroke"
         id="rect14994"
         width="19.436607"
         height="7.448204"
         x="75.041649"
         y="-31.825153"
         ry="2.8154335"
         rx="2.8154335"
         transform="rotate(45.000001)" /><rect
         style="fill:none;fill-opacity:1;stroke:#00a86b;stroke-width:2.50067;stroke-linejoin:miter;stroke-miterlimit:100;stroke-dasharray:none;stroke-opacity:1;paint-order:markers fill stroke"
         id="rect14996"
         width="9.7261419"
         height="20.809364"
         x="79.896889"
         y="-24.346302"
         rx="2.8154335"
         ry="2.8154335"
         transform="rotate(45.000001)" /><rect
         style="fill:none;fill-opacity:1;stroke:#00a86b;stroke-width:2.50068;stroke-linejoin:miter;stroke-miterlimit:100;stroke-dasharray:none;stroke-opacity:1;paint-order:markers fill stroke"
         id="rect14998"
         width="5.5086036"
         height="12.168487"
         x="82.005661"
         y="-3.4758558"
         rx="2.8154335"
         ry="2.8154335"
         transform="rotate(45.000001)" /><path
         id="path15000"
         style="fill:none;fill-opacity:1;stroke:#00a86b;stroke-width:2.50068;stroke-linejoin:miter;stroke-miterlimit:100;stroke-dasharray:none;stroke-opacity:1;paint-order:markers fill stroke"
         d="m 87.202278,32.666065 a 6.6691295,6.0706867 45.000001 0 0 -9.008067,-0.423066 6.6691295,6.0706867 45.000001 0 0 -0.431009,0.512515 l 9.349972,9.349974 a 6.6691295,6.0706867 45.000001 0 0 0.512516,-0.43101 6.6691295,6.0706867 45.000001 0 0 -0.423412,-9.008413 z" /><path
         id="path15002"
         style="fill:none;fill-opacity:1;stroke:#00a86b;stroke-width:2.50068;stroke-linejoin:miter;stroke-miterlimit:100;stroke-dasharray:none;stroke-opacity:1;paint-order:markers fill stroke"
         d="M 57.609626,58.36373 A 17.286763,18.744424 45.000001 0 0 35.902959,59.705804 L 60.162882,83.965728 A 17.286763,18.744424 45.000001 0 0 61.504613,62.25941 l -3.778255,3.778254 c -1.102909,1.102909 -2.859543,1.122477 -3.938504,0.04351 -1.078962,-1.078961 -1.059739,-2.835939 0.04317,-3.938849 z" /><circle
         style="fill:none;fill-opacity:1;stroke:#00a86b;stroke-width:2.50068;stroke-linejoin:miter;stroke-miterlimit:100;stroke-dasharray:none;stroke-opacity:1;paint-order:markers fill stroke"
         id="circle15004"
         cx="84.759956"
         cy="24.012287"
         r="3.0006576"
         transform="rotate(45.000001)" /><path
         style="fill:none;fill-opacity:1;stroke:#00a86b;stroke-width:2.50068;stroke-linejoin:miter;stroke-miterlimit:100;stroke-dasharray:none;stroke-opacity:1;paint-order:markers fill stroke"
         d="M 64.194582,42.642329 C 76.796398,55.244148 77.42024,55.795858 77.42024,55.795858"
         id="path15006"
         sodipodi:nodetypes="cc" /><path
         style="fill:none;fill-opacity:1;stroke:#00a86b;stroke-width:2.50068;stroke-linejoin:miter;stroke-miterlimit:100;stroke-dasharray:none;stroke-opacity:1;paint-order:markers fill stroke"
         d="M 59.243478,47.593432 C 71.845295,60.19525 72.469135,60.746961 72.469135,60.746961"
         id="path15008"
         sodipodi:nodetypes="cc" /><rect
         style="fill:none;fill-opacity:1;stroke:#00a86b;stroke-width:2.50067;stroke-linejoin:miter;stroke-miterlimit:100;stroke-dasharray:none;stroke-opacity:1;paint-order:markers fill stroke"
         id="rect15010"
         width="28.345922"
         height="14.310508"
         x="94.018295"
         y="-18.763424"
         ry="2.8154335"
         rx="2.8154335"
         transform="rotate(45.000001)" /><path
         style="fill:none;fill-opacity:1;stroke:#00a86b;stroke-width:2.50068;stroke-linejoin:miter;stroke-miterlimit:100;stroke-dasharray:none;stroke-opacity:1;paint-order:markers fill stroke"
         d="M 85.567327,58.879455 C 75.307847,69.138936 74.865386,69.653524 74.865386,69.653524"
         id="path15012"
         sodipodi:nodetypes="cc" /><path
         style="fill:none;fill-opacity:1;stroke:#00a86b;stroke-width:2.50068;stroke-linejoin:miter;stroke-miterlimit:100;stroke-dasharray:none;stroke-opacity:1;paint-order:markers fill stroke"
         d="M 93.347632,66.659761 C 83.088152,76.919242 82.645691,77.433829 82.645691,77.433829"
         id="path15014"
         sodipodi:nodetypes="cc" /><path
         style="fill:none;fill-opacity:1;stroke:#00a86b;stroke-width:2.50068;stroke-linejoin:miter;stroke-miterlimit:100;stroke-dasharray:none;stroke-opacity:1;paint-order:markers fill stroke"
         d="M 74.666107,58.285003 C 93.567459,77.186358 94.485124,78.031891 94.485124,78.031891"
         id="path15016"
         sodipodi:nodetypes="cc" /><rect
         style="fill:none;fill-opacity:1;stroke:#00a86b;stroke-width:2.50067;stroke-linejoin:miter;stroke-miterlimit:100;stroke-dasharray:none;stroke-opacity:1;paint-order:markers fill stroke"
         id="rect15020"
         width="28.345922"
         height="14.310508"
         x="-75.501625"
         y="4.4529171"
         ry="2.8154335"
         rx="2.8154335"
         transform="rotate(-135)" /><path
         style="fill:none;fill-opacity:1;stroke:#00a86b;stroke-width:2.50068;stroke-linejoin:miter;stroke-miterlimit:100;stroke-dasharray:none;stroke-opacity:1;paint-order:markers fill stroke"
         d="M 50.71779,44.572802 C 60.97727,34.313322 61.419731,33.798734 61.419731,33.798734"
         id="path15022"
         sodipodi:nodetypes="cc" /><path
         style="fill:none;fill-opacity:1;stroke:#00a86b;stroke-width:2.50068;stroke-linejoin:miter;stroke-miterlimit:100;stroke-dasharray:none;stroke-opacity:1;paint-order:markers fill stroke"
         d="m 42.937486,36.792496 c 10.25948,-10.25948 10.70194,-10.774067 10.70194,-10.774067"
         id="path15024"
         sodipodi:nodetypes="cc" /><path
         style="fill:none;fill-opacity:1;stroke:#00a86b;stroke-width:2.50068;stroke-linejoin:miter;stroke-miterlimit:100;stroke-dasharray:none;stroke-opacity:1;paint-order:markers fill stroke"
         d="M 61.619011,45.167254 C 42.717658,26.265901 41.799994,25.420367 41.799994,25.420367"
         id="path15026"
         sodipodi:nodetypes="cc" /><path
         id="path18014"
         style="color:#000000;fill:#00a86b;stroke-width:0.812655;stroke-miterlimit:0;-inkscape-stroke:none;paint-order:markers fill stroke"
         d="m 24.405167,79.251413 c -0.02644,0.370678 -0.04589,0.743266 -0.04589,1.120836 0,8.510863 6.833093,15.386023 15.291872,15.386023 0.375259,0 0.745573,-0.01956 1.113976,-0.04613 v 2.249637 c -0.368709,0.02339 -0.73949,0.03822 -1.113976,0.03822 -9.662855,10e-7 -17.51983,-7.905346 -17.51983,-17.627694 0,-0.376791 0.01473,-0.749852 0.03797,-1.120836 z" /><path
         id="circle18016"
         style="color:#000000;fill:#00a86b;stroke-width:0.908958;stroke-miterlimit:0;-inkscape-stroke:none;paint-order:markers fill stroke"
         d="m 29.78669,79.156739 c -0.05201,0.409464 -0.08166,0.825831 -0.08166,1.249818 0,5.403422 4.353681,9.7571 9.757102,9.7571 0.423987,0 0.840354,-0.02963 1.249819,-0.08162 v 2.517398 c -0.41076,0.04181 -0.828273,0.0639 -1.249819,0.0639 -6.754319,0 -12.256738,-5.50242 -12.256738,-12.256743 0,-0.421544 0.02208,-0.839057 0.06391,-1.249819 z" /><path
         id="circle18018"
         style="color:#000000;fill:#00a86b;stroke-width:0.908958;stroke-miterlimit:0;-inkscape-stroke:none;paint-order:markers fill stroke"
         d="m 35.153452,79.156739 c -0.113408,0.396549 -0.175755,0.815037 -0.175755,1.249818 0,2.491722 1.99271,4.484433 4.484431,4.484433 0.434782,0 0.853359,-0.06235 1.249819,-0.175755 v 2.559995 c -0.406188,0.07418 -0.822982,0.115394 -1.249819,0.115394 -3.842619,0 -6.984068,-3.141444 -6.984068,-6.984067 0,-0.426503 0.04133,-0.843889 0.115395,-1.249818 z" /></g></g></svg>
